<svg width="32" height="32" viewBox="0 0 32 32" fill="none" xmlns="http://www.w3.org/2000/svg">
<rect width="32" height="32" rx="16" fill="white"/>
<path d="M16 26.5C10.201 26.5 5.5 21.799 5.5 16C5.5 10.201 10.201 5.5 16 5.5C21.799 5.5 26.5 10.201 26.5 16C26.5 21.799 21.799 26.5 16 26.5ZM16 28C22.6274 28 28 22.6274 28 16C28 9.37258 22.6274 4 16 4C9.37258 4 4 9.37258 4 16C4 22.6274 9.37258 28 16 28Z" fill="#FF9933"/>
<path d="M10.4272 18.3508C10.7857 18.1434 11.2445 18.2659 11.4519 18.6245C12.3608 20.1956 14.0577 21.25 16 21.25C17.9423 21.25 19.6393 20.1956 20.5481 18.6245C20.7556 18.2659 21.2143 18.1434 21.5729 18.3508C21.9314 18.5582 22.054 19.017 21.8466 19.3755C20.6806 21.3912 18.4994 22.75 16 22.75C13.5006 22.75 11.3195 21.3912 10.1535 19.3755C9.94612 19.017 10.0686 18.5582 10.4272 18.3508Z" fill="#FF9933"/>
<path d="M14.5 13.75C14.5 14.9926 13.8284 16 13 16C12.1716 16 11.5 14.9926 11.5 13.75C11.5 12.5074 12.1716 11.5 13 11.5C13.8284 11.5 14.5 12.5074 14.5 13.75Z" fill="#FF9933"/>
<path d="M20.5 13.75C20.5 14.9926 19.8284 16 19 16C18.1716 16 17.5 14.9926 17.5 13.75C17.5 12.5074 18.1716 11.5 19 11.5C19.8284 11.5 20.5 12.5074 20.5 13.75Z" fill="#FF9933"/>
</svg>
